<svg xmlns="http://www.w3.org/2000/svg" width="45" height="45" viewBox="0 0 45 45">
  <g id="Group_3049" data-name="Group 3049" transform="translate(-79 -454)">
    <g id="Rectangle_2097" data-name="Rectangle 2097" transform="translate(79 454)" fill="none" stroke="#fff" stroke-width="3">
      <rect width="21" height="21" rx="5" stroke="none"/>
      <rect x="1.5" y="1.5" width="18" height="18" rx="3.5" fill="none"/>
    </g>
    <g id="Rectangle_2099" data-name="Rectangle 2099" transform="translate(79 478)" fill="none" stroke="#fff" stroke-width="3">
      <rect width="21" height="21" rx="5" stroke="none"/>
      <rect x="1.5" y="1.5" width="18" height="18" rx="3.5" fill="none"/>
    </g>
    <g id="Rectangle_2098" data-name="Rectangle 2098" transform="translate(103 454)" fill="none" stroke="#fff" stroke-width="3">
      <rect width="21" height="21" rx="5" stroke="none"/>
      <rect x="1.5" y="1.5" width="18" height="18" rx="3.5" fill="none"/>
    </g>
    <path id="Path_1121" data-name="Path 1121" d="M14.908,6.674H9.716V1.294a1.394,1.394,0,1,0-2.789,0v5.38H1.388a1.394,1.394,0,0,0,.006,2.789H6.934v5.348a1.394,1.394,0,0,0,2.789,0V9.463h5.192a1.394,1.394,0,1,0-.006-2.789Z" transform="translate(105.346 480.447)" fill="#fff"/>
  </g>
</svg>
