<svg xmlns="http://www.w3.org/2000/svg" width="25.987" height="24.958" viewBox="0 0 25.987 24.958">
  <g id="Group_3034" data-name="Group 3034" transform="translate(-7.5 -17.334)">
    <path id="Path_1102" data-name="Path 1102" d="M33.487,29.814c0,1.345-1.269,2.472-1.663,3.686-.408,1.258-.057,2.914-.818,3.961s-2.456,1.232-3.512,2-1.729,2.318-2.985,2.727c-1.212.394-2.673-.451-4.016-.451s-2.8.845-4.016.451c-1.256-.408-1.939-1.965-2.985-2.727s-2.743-.944-3.512-2-.41-2.7-.818-3.961C8.769,32.286,7.5,31.158,7.5,29.814s1.269-2.472,1.663-3.686c.408-1.258.057-2.914.818-3.961s2.456-1.232,3.512-2,1.729-2.318,2.985-2.727c1.212-.394,2.673.451,4.016.451s2.8-.845,4.016-.451c1.256.408,1.939,1.965,2.985,2.727s2.743.944,3.512,2,.41,2.7.818,3.961C32.218,27.341,33.487,28.469,33.487,29.814Z" fill="#fff"/>
    <ellipse id="Ellipse_12" data-name="Ellipse 12" cx="9.151" cy="9.161" rx="9.151" ry="9.161" transform="translate(11.342 20.652)" fill="#039f9c"/>
    <path id="Path_1103" data-name="Path 1103" d="M191.823,186.917a1.009,1.009,0,0,1-.716-.3L189,184.514a1.013,1.013,0,0,1,1.432-1.432l1.391,1.391,5.327-5.327a1.013,1.013,0,1,1,1.432,1.432l-6.043,6.043A1.009,1.009,0,0,1,191.823,186.917Z" transform="translate(-171.729 -153.07)" fill="#3d79a9"/>
    <path id="Path_1104" data-name="Path 1104" d="M161.823,186.917a1.009,1.009,0,0,1-.716-.3L159,184.514a1.013,1.013,0,0,1,1.432-1.432l1.391,1.391,5.327-5.327a1.013,1.013,0,1,1,1.432,1.432l-6.043,6.043A1.009,1.009,0,0,1,161.823,186.917Z" transform="translate(-143.298 -153.07)" fill="#fff"/>
  </g>
</svg>
