<svg xmlns="http://www.w3.org/2000/svg" width="35.634" height="38.177" viewBox="0 0 35.634 38.177">
  <path id="Path_1126" data-name="Path 1126" d="M8.334,17.668a2.009,2.009,0,0,0,2.19,3.275,2.391,2.391,0,0,0,.663-.442,2.009,2.009,0,0,0,.422-.643,1.708,1.708,0,0,0,.161-.784,2.009,2.009,0,0,0-3.436-1.407ZM9.76,7.019a2.009,2.009,0,1,1,0,4.019,2.009,2.009,0,0,0,0,4.019A6.028,6.028,0,1,0,4.536,6.014,2.008,2.008,0,1,0,8.012,8.024a2.009,2.009,0,0,1,1.748-1ZM33.872,9.028H21.816a2.009,2.009,0,1,0,0,4.019H33.872a2.009,2.009,0,0,1,2.009,2.009v19.53l-3.155-2.913a2.009,2.009,0,0,0-1.366-.543H13.779a2.009,2.009,0,0,1-2.009-2.009V27.112a2.009,2.009,0,1,0-4.019,0v2.009a6.028,6.028,0,0,0,6.028,6.028h16.8L36.6,40.635a2.009,2.009,0,0,0,1.286.543,2.21,2.21,0,0,0,.8-.161A2.009,2.009,0,0,0,39.9,39.168V15.056A6.028,6.028,0,0,0,33.872,9.028Z" transform="translate(-4.265 -3)" fill="#fff"/>
</svg>
