<svg xmlns="http://www.w3.org/2000/svg" width="25.861" height="24.838" viewBox="0 0 25.861 24.838">
  <g id="Group_3052" data-name="Group 3052" transform="translate(-7.5 -17.334)">
    <path id="Path_1102" data-name="Path 1102" d="M33.361,29.753c0,1.338-1.263,2.46-1.655,3.668-.406,1.252-.057,2.9-.814,3.942s-2.444,1.226-3.495,1.992-1.72,2.307-2.97,2.714c-1.206.392-2.66-.448-4-.448s-2.791.84-4,.448c-1.25-.406-1.93-1.955-2.97-2.714s-2.73-.939-3.495-1.992-.408-2.69-.814-3.942C8.763,32.214,7.5,31.091,7.5,29.753s1.263-2.46,1.655-3.668c.406-1.252.057-2.9.814-3.942s2.444-1.226,3.495-1.992,1.72-2.307,2.97-2.714c1.206-.392,2.66.448,4,.448s2.791-.84,4-.448c1.25.406,1.93,1.955,2.97,2.714s2.73.939,3.495,1.992.408,2.69.814,3.942C32.1,27.293,33.361,28.415,33.361,29.753Z" transform="translate(0)" fill="#fff"/>
    <ellipse id="Ellipse_12" data-name="Ellipse 12" cx="9.107" cy="9.117" rx="9.107" ry="9.117" transform="translate(11.324 20.636)" fill="#039f9c"/>
    <path id="Path_1103" data-name="Path 1103" d="M191.808,186.878a1,1,0,0,1-.712-.3l-2.1-2.1a1.008,1.008,0,1,1,1.425-1.425l1.384,1.384,5.3-5.3a1.008,1.008,0,0,1,1.425,1.425l-6.014,6.014A1,1,0,0,1,191.808,186.878Z" transform="translate(-171.775 -153.111)" fill="#3d79a9"/>
    <path id="Path_1104" data-name="Path 1104" d="M161.808,186.878a1,1,0,0,1-.712-.3l-2.1-2.1a1.008,1.008,0,1,1,1.425-1.425l1.384,1.384,5.3-5.3a1.008,1.008,0,1,1,1.425,1.425l-6.014,6.014A1,1,0,0,1,161.808,186.878Z" transform="translate(-143.336 -153.111)" fill="#fff"/>
  </g>
</svg>
