<svg xmlns="http://www.w3.org/2000/svg" xmlns:xlink="http://www.w3.org/1999/xlink" width="46.002" height="40.058" viewBox="0 0 46.002 40.058">
  <defs>
    <linearGradient id="linear-gradient" x1="1" x2="-0.363" y2="2.194" gradientUnits="objectBoundingBox">
      <stop offset="0" stop-color="#038e8b"/>
      <stop offset="0.267" stop-color="#068c8b"/>
      <stop offset="0.507" stop-color="#11888e"/>
      <stop offset="0.737" stop-color="#238192"/>
      <stop offset="0.937" stop-color="#3d7797"/>
      <stop offset="1" stop-color="#437599"/>
    </linearGradient>
  </defs>
  <g id="hand_recieve_money" data-name="hand recieve money" transform="translate(-1 -4)">
    <path id="Path_1221" data-name="Path 1221" d="M45,7V4H42a3,3,0,0,0,3,3ZM15,17v3h3A3,3,0,0,0,15,17ZM18,4H15V7A3,3,0,0,0,18,4Z" fill="url(#linear-gradient)"/>
    <circle id="Ellipse_22" data-name="Ellipse 22" cx="3" cy="3" r="3" transform="translate(27 9)" fill="url(#linear-gradient)"/>
    <path id="Path_1222" data-name="Path 1222" d="M20,20H40a5,5,0,0,1,5-5V9a5,5,0,0,1-5-5H20a5,5,0,0,1-5,5v6A5,5,0,0,1,20,20Zm18.29-8.71a1,1,0,1,1-.156,1.2A1,1,0,0,1,38.29,11.29ZM30,7a5,5,0,1,1-5,5A5,5,0,0,1,30,7Zm-9.71,4.29a1,1,0,1,1-.156,1.2,1,1,0,0,1,.156-1.2ZM45,20V17a3,3,0,0,0-3,3Z" fill="url(#linear-gradient)"/>
    <rect id="Rectangle_2136" data-name="Rectangle 2136" width="6" height="17" transform="translate(1 24)" fill="url(#linear-gradient)"/>
    <path id="Path_1223" data-name="Path 1223" d="M46.67,30.63a3,3,0,0,0-4-1.3L31.4,35.07c-1.43,2.23-3.76,3.67-6.11,2.54L17.4,33.9a1,1,0,0,1,.86-1.8c8.59,4,8.07,3.88,8.74,3.9,2.37.11,3.87-3.57,1.28-4.72C14.16,24.65,16.16,24.86,9,25.75V39a6.63,6.63,0,0,1,3.18.54c14.56,6.61,10.46,6.75,33.19-4.87a3,3,0,0,0,1.3-4.04Z" fill="url(#linear-gradient)"/>
  </g>
</svg>
