<svg xmlns="http://www.w3.org/2000/svg" width="45.01" height="40.009" viewBox="0 0 45.01 40.009">
  <g id="Group_3101" data-name="Group 3101" transform="translate(-69.995 -318.372)">
    <path id="Icon_awesome-hand-holding-heart" data-name="Icon awesome-hand-holding-heart" d="M44.172,25.637a2.587,2.587,0,0,0-3.329,0l-7.22,5.774A4.975,4.975,0,0,1,30.5,32.506H21.254a1.25,1.25,0,1,1,0-2.5h6.118a2.6,2.6,0,0,0,2.6-2.078A2.5,2.5,0,0,0,27.5,25H15a9.2,9.2,0,0,0-5.79,2.055L5.579,30.005H1.25A1.254,1.254,0,0,0,0,31.256v7.5a1.254,1.254,0,0,0,1.25,1.25H29.13a5.007,5.007,0,0,0,3.126-1.094L44.07,29.458A2.5,2.5,0,0,0,44.172,25.637Z" transform="translate(69.995 318.374)" fill="#039f9c"/>
    <path id="Icon_awesome-heart-broken" data-name="Icon awesome-heart-broken" d="M21.149,4.117,21.041,4a5.834,5.834,0,0,0-7.572-.661L15,7.961l-4.286,2.857,2.143,5.715L6.429,10.1l4.286-2.857L9.438,3.384a5.829,5.829,0,0,0-7.621.625l-.107.107a6.136,6.136,0,0,0-.326,8.135l9.469,9.76a.8.8,0,0,0,1.147,0l9.474-9.764A6.13,6.13,0,0,0,21.149,4.117Z" transform="translate(81.071 316.121)" fill="#039f9c"/>
  </g>
</svg>
