<svg xmlns="http://www.w3.org/2000/svg" width="17.28" height="21.468" viewBox="0 0 17.28 21.468">
  <g id="Icon_ionic-ios-notifications-outline" data-name="Icon ionic-ios-notifications-outline" transform="translate(-6.511 -3.68)">
    <path id="Path_1114" data-name="Path 1114" d="M18.926,28.336a.679.679,0,0,0-.666.535,1.313,1.313,0,0,1-.262.571.99.99,0,0,1-.844.309,1.007,1.007,0,0,1-.844-.309,1.313,1.313,0,0,1-.262-.571.679.679,0,0,0-.666-.535h0a.683.683,0,0,0-.666.833,2.342,2.342,0,0,0,2.437,1.944,2.337,2.337,0,0,0,2.437-1.944.686.686,0,0,0-.666-.833Z" transform="translate(-2.019 -6.215)" fill="#fff" stroke="#fff" stroke-width="0.5"/>
    <path id="Path_1115" data-name="Path 1115" d="M23.317,19.458c-.807-1.064-2.395-1.687-2.395-6.451,0-4.889-2.159-6.855-4.171-7.326-.189-.047-.325-.11-.325-.309V5.22A1.285,1.285,0,0,0,15.167,3.93h-.031A1.285,1.285,0,0,0,13.878,5.22v.152c0,.194-.136.262-.325.309-2.018.477-4.171,2.437-4.171,7.326,0,4.764-1.588,5.382-2.395,6.451a1.04,1.04,0,0,0,.833,1.667H22.5A1.041,1.041,0,0,0,23.317,19.458Zm-2.044.3H9.052a.23.23,0,0,1-.173-.383,6.349,6.349,0,0,0,1.1-1.75,11.876,11.876,0,0,0,.749-4.622,8.037,8.037,0,0,1,1.1-4.549,3.363,3.363,0,0,1,2.028-1.446,1.837,1.837,0,0,0,.975-.55.414.414,0,0,1,.624-.01,1.9,1.9,0,0,0,.985.561,3.363,3.363,0,0,1,2.028,1.446,8.037,8.037,0,0,1,1.1,4.549,11.876,11.876,0,0,0,.749,4.622,6.421,6.421,0,0,0,1.127,1.777A.217.217,0,0,1,21.273,19.762Z" fill="#fff" stroke="#fff" stroke-width="0.5"/>
  </g>
</svg>
