<svg xmlns="http://www.w3.org/2000/svg" width="17" height="16" viewBox="0 0 17 16">
  <g id="Icon_ionic-ios-menu" data-name="Icon ionic-ios-menu" transform="translate(-14.5 -10.125)">
    <path id="Path_1099" data-name="Path 1099" d="M30.375,12.375H15.625A1.128,1.128,0,0,1,14.5,11.25h0a1.128,1.128,0,0,1,1.125-1.125h14.75A1.128,1.128,0,0,1,31.5,11.25h0A1.128,1.128,0,0,1,30.375,12.375Z" fill="#fff"/>
    <path id="Path_1100" data-name="Path 1100" d="M30.375,19.125H15.625A1.128,1.128,0,0,1,14.5,18h0a1.128,1.128,0,0,1,1.125-1.125h14.75A1.128,1.128,0,0,1,31.5,18h0A1.128,1.128,0,0,1,30.375,19.125Z" transform="translate(0 0.125)" fill="#fff"/>
    <path id="Path_1101" data-name="Path 1101" d="M30.375,25.875H15.625A1.128,1.128,0,0,1,14.5,24.75h0a1.128,1.128,0,0,1,1.125-1.125h14.75A1.128,1.128,0,0,1,31.5,24.75h0A1.128,1.128,0,0,1,30.375,25.875Z" transform="translate(0 0.25)" fill="#fff"/>
  </g>
</svg>
