<svg id="Group_3100" data-name="Group 3100" xmlns="http://www.w3.org/2000/svg" xmlns:xlink="http://www.w3.org/1999/xlink" width="57.22" height="57.309" viewBox="0 0 57.22 57.309">
  <defs>
    <clipPath id="clip-path">
      <rect id="Rectangle_2117" data-name="Rectangle 2117" width="57.22" height="57.309" fill="#fff"/>
    </clipPath>
    <filter id="Path_1184" x="-9" y="-6" width="75.22" height="75.309" filterUnits="userSpaceOnUse">
      <feOffset dy="3" input="SourceAlpha"/>
      <feGaussianBlur stdDeviation="3" result="blur"/>
      <feFlood flood-opacity="0.161"/>
      <feComposite operator="in" in2="blur"/>
      <feComposite in="SourceGraphic"/>
    </filter>
    <filter id="Path_1186" x="20.48" y="35.727" width="27.548" height="28.991" filterUnits="userSpaceOnUse">
      <feOffset dy="3" input="SourceAlpha"/>
      <feGaussianBlur stdDeviation="3" result="blur-2"/>
      <feFlood flood-opacity="0.161"/>
      <feComposite operator="in" in2="blur-2"/>
      <feComposite in="SourceGraphic"/>
    </filter>
    <filter id="Path_1187" x="8.68" y="-1.66" width="27.581" height="28.926" filterUnits="userSpaceOnUse">
      <feOffset dy="3" input="SourceAlpha"/>
      <feGaussianBlur stdDeviation="3" result="blur-3"/>
      <feFlood flood-opacity="0.161"/>
      <feComposite operator="in" in2="blur-3"/>
      <feComposite in="SourceGraphic"/>
    </filter>
    <filter id="Path_1188" x="8.673" y="35.717" width="27.756" height="29.122" filterUnits="userSpaceOnUse">
      <feOffset dy="3" input="SourceAlpha"/>
      <feGaussianBlur stdDeviation="3" result="blur-4"/>
      <feFlood flood-opacity="0.161"/>
      <feComposite operator="in" in2="blur-4"/>
      <feComposite in="SourceGraphic"/>
    </filter>
    <filter id="Path_1189" x="20.339" y="-1.907" width="27.749" height="29.225" filterUnits="userSpaceOnUse">
      <feOffset dy="3" input="SourceAlpha"/>
      <feGaussianBlur stdDeviation="3" result="blur-5"/>
      <feFlood flood-opacity="0.161"/>
      <feComposite operator="in" in2="blur-5"/>
      <feComposite in="SourceGraphic"/>
    </filter>
    <filter id="Path_1190" x="26.834" y="35.725" width="31.064" height="27.997" filterUnits="userSpaceOnUse">
      <feOffset dy="3" input="SourceAlpha"/>
      <feGaussianBlur stdDeviation="3" result="blur-6"/>
      <feFlood flood-opacity="0.161"/>
      <feComposite operator="in" in2="blur-6"/>
      <feComposite in="SourceGraphic"/>
    </filter>
    <filter id="Path_1191" x="26.815" y="-0.492" width="30.982" height="27.779" filterUnits="userSpaceOnUse">
      <feOffset dy="3" input="SourceAlpha"/>
      <feGaussianBlur stdDeviation="3" result="blur-7"/>
      <feFlood flood-opacity="0.161"/>
      <feComposite operator="in" in2="blur-7"/>
      <feComposite in="SourceGraphic"/>
    </filter>
    <filter id="Path_1192" x="-0.917" y="35.683" width="31.008" height="27.957" filterUnits="userSpaceOnUse">
      <feOffset dy="3" input="SourceAlpha"/>
      <feGaussianBlur stdDeviation="3" result="blur-8"/>
      <feFlood flood-opacity="0.161"/>
      <feComposite operator="in" in2="blur-8"/>
      <feComposite in="SourceGraphic"/>
    </filter>
    <filter id="Path_1193" x="-0.864" y="-0.253" width="30.187" height="27.541" filterUnits="userSpaceOnUse">
      <feOffset dy="3" input="SourceAlpha"/>
      <feGaussianBlur stdDeviation="3" result="blur-9"/>
      <feFlood flood-opacity="0.161"/>
      <feComposite operator="in" in2="blur-9"/>
      <feComposite in="SourceGraphic"/>
    </filter>
    <filter id="Path_1185" x="-4.829" y="11.303" width="66.705" height="40.397" filterUnits="userSpaceOnUse">
      <feOffset dy="3" input="SourceAlpha"/>
      <feGaussianBlur stdDeviation="3" result="blur-10"/>
      <feFlood flood-opacity="0.161"/>
      <feComposite operator="in" in2="blur-10"/>
      <feComposite in="SourceGraphic"/>
    </filter>
  </defs>
  <g id="Group_3099" data-name="Group 3099" clip-path="url(#clip-path)">
    <g transform="matrix(1, 0, 0, 1, 0, 0)" filter="url(#Path_1184)">
      <path id="Path_1184-2" data-name="Path 1184" d="M30.328,0c1.307.2,2.635.311,3.919.612,11.707,2.751,19.366,9.9,22.168,21.586,3.753,15.654-5.968,30.8-21.667,34.41A28.617,28.617,0,0,1,22.434.714C23.649.435,24.905.336,26.141.148c.244-.037.485-.1.727-.148h3.459m-1.8,1.933A26.643,26.643,0,1,0,55.165,28.765,26.641,26.641,0,0,0,28.524,1.933" transform="translate(0)" fill="#fff"/>
    </g>
    <g transform="matrix(1, 0, 0, 1, 0, 0)" filter="url(#Path_1186)">
      <path id="Path_1186-2" data-name="Path 1186" d="M196.012,288.428v-10.99h9.548c-.2,4.421-5.95,11.063-9.548,10.99" transform="translate(-166.53 -235.71)" fill="#fff"/>
    </g>
    <g transform="matrix(1, 0, 0, 1, 0, 0)" filter="url(#Path_1187)">
      <path id="Path_1187-2" data-name="Path 1187" d="M127.136,28.854V39.78h-9.581c.729-5.049,5.866-10.927,9.581-10.926" transform="translate(-99.87 -24.51)" fill="#fff"/>
    </g>
    <g transform="matrix(1, 0, 0, 1, 0, 0)" filter="url(#Path_1188)">
      <path id="Path_1188-2" data-name="Path 1188" d="M127.264,277.373V288.5c-.655-.218-1.269-.37-1.84-.621a11.094,11.094,0,0,1-4.177-3.455,26.275,26.275,0,0,1-3.669-6.677,1.963,1.963,0,0,1-.07-.37Z" transform="translate(-99.83 -235.66)" fill="#fff"/>
    </g>
    <g transform="matrix(1, 0, 0, 1, 0, 0)" filter="url(#Path_1189)">
      <path id="Path_1189-2" data-name="Path 1189" d="M204.824,38.439c-3.122,0-6.2,0-9.275,0-.145,0-.29-.017-.474-.028v-11.2a27.193,27.193,0,0,1,2.658,1.136,10.48,10.48,0,0,1,3.886,3.792c1.13,1.878,2.07,3.87,3.086,5.817a2.3,2.3,0,0,1,.118.48" transform="translate(-165.74 -23.12)" fill="#fff"/>
    </g>
    <g transform="matrix(1, 0, 0, 1, 0, 0)" filter="url(#Path_1190)">
      <path id="Path_1190-2" data-name="Path 1190" d="M238.257,287.42a23.632,23.632,0,0,0,5.656-10h7.408c-2.27,4.128-7.825,8.6-13.064,10" transform="translate(-202.42 -235.7)" fill="#fff"/>
    </g>
    <g transform="matrix(1, 0, 0, 1, 0, 0)" filter="url(#Path_1191)">
      <path id="Path_1191-2" data-name="Path 1191" d="M251.114,46.4h-7.45a21.286,21.286,0,0,0-5.532-9.779c3.269.008,11.41,6.154,12.982,9.779" transform="translate(-202.32 -31.11)" fill="#fff"/>
    </g>
    <g transform="matrix(1, 0, 0, 1, 0, 0)" filter="url(#Path_1192)">
      <path id="Path_1192-2" data-name="Path 1192" d="M61.05,277.146a21.1,21.1,0,0,0,5.7,9.957c-3.638-.346-10.758-5.775-13.008-9.957h7.3Z" transform="translate(-45.66 -235.46)" fill="#fff"/>
    </g>
    <g transform="matrix(1, 0, 0, 1, 0, 0)" filter="url(#Path_1193)">
      <path id="Path_1193-2" data-name="Path 1193" d="M66.281,38.212a25.723,25.723,0,0,0-5.07,9.541H54.094a23.838,23.838,0,0,1,12.187-9.541" transform="translate(-45.96 -32.46)" fill="#fff"/>
    </g>
    <path id="Path_1194" data-name="Path 1194" d="M151.742,151.407l1.828,6.341h-4.007l1.859-6.388.32.046" transform="translate(-127.069 -128.596)" fill="#fff"/>
    <g transform="matrix(1, 0, 0, 1, 0, 0)" filter="url(#Path_1185)">
      <path id="Path_1185-2" data-name="Path 1185" d="M52.087,137.427c-6.967,0-13.934-.009-20.9.016a1.036,1.036,0,0,1-1.117-.721,24.345,24.345,0,0,1,.09-21,.994.994,0,0,1,1.063-.678q20.863.029,41.726,0a.994.994,0,0,1,1.064.677,24.337,24.337,0,0,1,.092,21,1.036,1.036,0,0,1-1.116.724c-6.967-.025-13.934-.016-20.9-.016m3.1-3.459a1.468,1.468,0,0,0,.024-.308Q52.9,126.3,50.579,118.933a1.141,1.141,0,0,0-1.217-.807q-1.09,0-2.179,0c-1.266,0-1.422.114-1.808,1.339q-2.151,6.827-4.3,13.656c-.077.246-.123.5-.208.854,1.005,0,1.879.029,2.748-.024.182-.011.436-.294.5-.5q.534-1.638.977-3.306a.672.672,0,0,1,.775-.6c1.453.025,2.906.03,4.358,0,.507-.011.687.2.805.653.285,1.087.607,2.166.946,3.237.064.2.271.5.425.513.916.048,1.836.024,2.78.024M68.744,118.44a2,2,0,0,0-.512-.192,41.255,41.255,0,0,0-5.525-.283c-2.688.192-4.039,1.5-4.64,4.134a18.085,18.085,0,0,0,.012,7.968A4.557,4.557,0,0,0,61.55,133.9a14.628,14.628,0,0,0,7.055-.193.659.659,0,0,0,.407-.471c-.03-.641-.144-1.278-.23-1.937-.316,0-.561-.006-.807,0-1.426.042-2.851.13-4.277.119a2.216,2.216,0,0,1-2.4-1.853,15.366,15.366,0,0,1,0-7.067,2.308,2.308,0,0,1,2.4-1.88c.575-.026,1.153-.009,1.729-.009h3.038l.277-2.175m-30.96,7.655c0-2.406-.017-4.813.012-7.219.007-.6-.194-.806-.78-.76a9.449,9.449,0,0,1-1.578,0c-.637-.057-.805.194-.8.81.029,2.882.013,5.765.013,8.647,0,1.9.013,3.81-.008,5.715-.006.522.172.727.7.7a11.8,11.8,0,0,1,1.653,0c.643.054.809-.216.8-.824-.028-2.356-.011-4.712-.011-7.068" transform="translate(-23.56 -97.74)" fill="#fff"/>
    </g>
  </g>
</svg>
