<svg xmlns="http://www.w3.org/2000/svg" xmlns:xlink="http://www.w3.org/1999/xlink" width="138.608" height="70.968" viewBox="0 0 138.608 70.968">
  <defs>
    <filter id="Path_1" x="0" y="0" width="64.036" height="70.968" filterUnits="userSpaceOnUse">
      <feOffset dy="6" input="SourceAlpha"/>
      <feGaussianBlur stdDeviation="7" result="blur"/>
      <feFlood flood-opacity="0.071"/>
      <feComposite operator="in" in2="blur"/>
      <feComposite in="SourceGraphic"/>
    </filter>
  </defs>
  <g id="Group_3325" data-name="Group 3325" transform="translate(-17.982 99.484)">
    <g id="Component_1_24" data-name="Component 1 – 24" transform="translate(38.982 -84.484)">
      <g transform="matrix(1, 0, 0, 1, -21, -15)" filter="url(#Path_1)">
        <path id="Path_1-2" data-name="Path 1" d="M3.48,11.155a7.614,7.614,0,0,1,7.537-7.689,7.615,7.615,0,0,1,7.538,7.689,7.7,7.7,0,0,1-4.537,7.056L12.438,16.3s.125-1.472,1.333-1.624,1.592-.465,1.241-1.22c0,0,.4-.527.088-.657,0,0,.341-.25.231-.431s-.449-.468-.224-.7a.435.435,0,0,0-.13-.738c-.346-.184-.754-.333-.667-.928a2.507,2.507,0,0,0-.927-2.545,1.592,1.592,0,0,0-.029-1.676l-.273.576a1.5,1.5,0,0,0-.3-1.034c.022.053.25.658-.833.81a12.566,12.566,0,0,0-2.683.512C7.168,7.172,5.119,8.557,5.7,11.4a4.907,4.907,0,0,0,3.406,3.574l-1.4,3.09A7.706,7.706,0,0,1,3.48,11.155M11.018,0V.136A.137.137,0,0,0,10.881,0,11.134,11.134,0,0,0,0,11.234a11.263,11.263,0,0,0,.1,1.5c.924,7.609,10.713,16.062,10.917,16.236.2-.174,9.993-8.628,10.918-16.236a11.477,11.477,0,0,0,.1-1.5A11.129,11.129,0,0,0,11.018,0Z" transform="translate(21 15)" fill="#fff"/>
      </g>
    </g>
    <g id="Group_3048" data-name="Group 3048" transform="translate(70.582 -80.484)">
      <g id="Group_1" data-name="Group 1" transform="translate(2.527 15.226)">
        <path id="Path_2" data-name="Path 2" d="M15.976,56.388a3.945,3.945,0,0,1,0,5.088,3.742,3.742,0,0,1-2.711.9h-1.81V55.488h1.81a3.747,3.747,0,0,1,2.711.9m-.137,4.951a3.762,3.762,0,0,0,0-4.814,3.515,3.515,0,0,0-2.574-.862H11.651V62.2h1.615a3.514,3.514,0,0,0,2.574-.861" transform="translate(-11.455 -55.136)" fill="#fff" stroke="#fff" stroke-width="0.5"/>
        <path id="Path_3" data-name="Path 3" d="M36.315,66.055a2.348,2.348,0,0,1-.925-.94,3.255,3.255,0,0,1,0-2.886,2.357,2.357,0,0,1,.925-.94,2.829,2.829,0,0,1,2.642,0,2.324,2.324,0,0,1,.92.94,3.3,3.3,0,0,1,0,2.886,2.316,2.316,0,0,1-.92.94,2.827,2.827,0,0,1-2.642,0m2.5-.127a2.144,2.144,0,0,0,.871-.847,3.15,3.15,0,0,0,0-2.818,2.151,2.151,0,0,0-.871-.846,2.513,2.513,0,0,0-1.175-.28,2.541,2.541,0,0,0-1.179.28,2.124,2.124,0,0,0-.876.851,3.13,3.13,0,0,0,0,2.808,2.127,2.127,0,0,0,.876.851,2.544,2.544,0,0,0,1.179.279,2.516,2.516,0,0,0,1.175-.279" transform="translate(-28.428 -59.073)" fill="#fff" stroke="#fff" stroke-width="0.5"/>
        <path id="Path_4" data-name="Path 4" d="M62.271,61.363a2.321,2.321,0,0,1,.6,1.742v3.083h-.186v-3.1a2.2,2.2,0,0,0-.519-1.58,1.869,1.869,0,0,0-1.419-.544,1.961,1.961,0,0,0-1.507.611,2.569,2.569,0,0,0-.568,1.806v2.808h-.2V60.9h.2v1.39a1.862,1.862,0,0,1,.744-1.121,2.279,2.279,0,0,1,1.33-.387,2.108,2.108,0,0,1,1.527.577" transform="translate(-45.274 -58.946)" fill="#fff" stroke="#fff" stroke-width="0.5"/>
        <path id="Path_5" data-name="Path 5" d="M79.328,62.229a2.267,2.267,0,0,1,.91-.94,2.7,2.7,0,0,1,1.341-.328,2.491,2.491,0,0,1,1.541.475,2.282,2.282,0,0,1,.846,1.208V61.03h.186v5.284h-.186V64.7a2.283,2.283,0,0,1-.846,1.208,2.491,2.491,0,0,1-1.541.475,2.706,2.706,0,0,1-1.341-.328,2.26,2.26,0,0,1-.91-.94,3.387,3.387,0,0,1,0-2.886m4.33.117a2.243,2.243,0,0,0-.851-.89,2.384,2.384,0,0,0-1.228-.318,2.51,2.51,0,0,0-1.258.3,2.068,2.068,0,0,0-.827.876,3.277,3.277,0,0,0,0,2.711,2.067,2.067,0,0,0,.827.876,2.5,2.5,0,0,0,1.258.3,2.381,2.381,0,0,0,1.228-.319,2.236,2.236,0,0,0,.851-.89,3.008,3.008,0,0,0,0-2.652" transform="translate(-60.041 -59.072)" fill="#fff" stroke="#fff" stroke-width="0.5"/>
        <path id="Path_6" data-name="Path 6" d="M102.054,57.941v3.7a1.958,1.958,0,0,0,.108.734.647.647,0,0,0,.343.357,1.668,1.668,0,0,0,.656.1h.558v.2h-.577a1.311,1.311,0,0,1-.983-.313,1.543,1.543,0,0,1-.3-1.076v-3.7H101v-.2h.861V56.4h.2v1.351h1.664v.2Z" transform="translate(-75.859 -55.788)" fill="#fff" stroke="#fff" stroke-width="0.5"/>
        <path id="Path_7" data-name="Path 7" d="M118.214,65.756a1.839,1.839,0,0,0,.734-1.232h.2a2.1,2.1,0,0,1-.778,1.346,2.559,2.559,0,0,1-1.649.513,2.635,2.635,0,0,1-1.311-.323,2.263,2.263,0,0,1-.905-.939,3.366,3.366,0,0,1,0-2.9,2.264,2.264,0,0,1,.905-.939,2.644,2.644,0,0,1,1.311-.323,2.531,2.531,0,0,1,1.321.328,2.19,2.19,0,0,1,.827.847,2.277,2.277,0,0,1,.279,1.1q0,.352-.01.528h-4.765a2.671,2.671,0,0,0,.338,1.36,2.1,2.1,0,0,0,.856.817,2.511,2.511,0,0,0,1.155.269,2.443,2.443,0,0,0,1.5-.451m-2.652-4.35a2.1,2.1,0,0,0-.856.817,2.674,2.674,0,0,0-.338,1.36h4.6a2.441,2.441,0,0,0-.259-1.36,1.976,1.976,0,0,0-.842-.817,2.6,2.6,0,0,0-2.3,0" transform="translate(-85.336 -59.072)" fill="#fff" stroke="#fff" stroke-width="0.5"/>
        <path id="Path_8" data-name="Path 8" d="M149.479,61.007h-3.405l-.724,1.9h-.225l2.554-6.683h.2l2.544,6.683h-.225Zm-.069-.177-1.634-4.3-1.634,4.3Z" transform="translate(-107.597 -55.664)" fill="#fff" stroke="#fff" stroke-width="0.5"/>
        <path id="Path_9" data-name="Path 9" d="M171.786,61.363a2.321,2.321,0,0,1,.6,1.742v3.083H172.2v-3.1a2.2,2.2,0,0,0-.519-1.58,1.87,1.87,0,0,0-1.419-.544,1.961,1.961,0,0,0-1.507.611,2.569,2.569,0,0,0-.568,1.806v2.808h-.2V60.9h.2v1.39a1.862,1.862,0,0,1,.744-1.121,2.279,2.279,0,0,1,1.33-.387,2.108,2.108,0,0,1,1.527.577" transform="translate(-124.043 -58.946)" fill="#fff" stroke="#fff" stroke-width="0.5"/>
        <path id="Path_10" data-name="Path 10" d="M188.842,57.391a2.267,2.267,0,0,1,.91-.94,2.7,2.7,0,0,1,1.341-.328,2.491,2.491,0,0,1,1.541.475,2.282,2.282,0,0,1,.846,1.208V54.235h.186v7.241h-.186V59.852a2.281,2.281,0,0,1-.846,1.218,2.491,2.491,0,0,1-1.541.475,2.706,2.706,0,0,1-1.341-.328,2.26,2.26,0,0,1-.91-.94,3.387,3.387,0,0,1,0-2.886m4.33.117a2.243,2.243,0,0,0-.851-.89,2.384,2.384,0,0,0-1.228-.318,2.51,2.51,0,0,0-1.258.3,2.068,2.068,0,0,0-.827.876,3.277,3.277,0,0,0,0,2.711,2.067,2.067,0,0,0,.827.876,2.5,2.5,0,0,0,1.258.3,2.381,2.381,0,0,0,1.228-.319,2.236,2.236,0,0,0,.851-.89,3.008,3.008,0,0,0,0-2.652" transform="translate(-138.81 -54.235)" fill="#fff" stroke="#fff" stroke-width="0.5"/>
        <path id="Path_11" data-name="Path 11" d="M224.827,55.488v.176h-2.006v6.713h-.2V55.665h-2.006v-.176Z" transform="translate(-161.898 -55.136)" fill="#fff" stroke="#fff" stroke-width="0.5"/>
        <path id="Path_12" data-name="Path 12" d="M241.546,60.786V61h-.088a2.14,2.14,0,0,0-1.414.484,1.921,1.921,0,0,0-.583,1.561v3.141h-.2V60.9h.2v1.281q.313-1.4,2.085-1.4" transform="translate(-175.31 -58.946)" fill="#fff" stroke="#fff" stroke-width="0.5"/>
        <path id="Path_13" data-name="Path 13" d="M250.5,62.229a2.267,2.267,0,0,1,.91-.94,2.7,2.7,0,0,1,1.341-.328,2.492,2.492,0,0,1,1.541.475,2.282,2.282,0,0,1,.846,1.208V61.03h.186v5.284h-.186V64.7a2.283,2.283,0,0,1-.846,1.208,2.491,2.491,0,0,1-1.541.475,2.706,2.706,0,0,1-1.341-.328,2.26,2.26,0,0,1-.91-.94,3.387,3.387,0,0,1,0-2.886m4.33.117a2.243,2.243,0,0,0-.851-.89,2.384,2.384,0,0,0-1.228-.318,2.51,2.51,0,0,0-1.257.3,2.068,2.068,0,0,0-.827.876,3.277,3.277,0,0,0,0,2.711,2.067,2.067,0,0,0,.827.876,2.5,2.5,0,0,0,1.257.3,2.381,2.381,0,0,0,1.228-.319,2.236,2.236,0,0,0,.851-.89,3.008,3.008,0,0,0,0-2.652" transform="translate(-183.158 -59.072)" fill="#fff" stroke="#fff" stroke-width="0.5"/>
        <path id="Path_14" data-name="Path 14" d="M273.894,62.224a2.268,2.268,0,0,1,.905-.939,2.644,2.644,0,0,1,1.311-.323,2.553,2.553,0,0,1,1.649.514,2.1,2.1,0,0,1,.778,1.346h-.2a1.843,1.843,0,0,0-.734-1.234,2.445,2.445,0,0,0-1.5-.45,2.491,2.491,0,0,0-1.17.279,2.094,2.094,0,0,0-.856.847,3.236,3.236,0,0,0,0,2.818,2.092,2.092,0,0,0,.856.846,2.488,2.488,0,0,0,1.17.28,2.444,2.444,0,0,0,1.5-.451,1.839,1.839,0,0,0,.734-1.233h.2a2.1,2.1,0,0,1-.778,1.346,2.556,2.556,0,0,1-1.649.513,2.635,2.635,0,0,1-1.311-.323,2.266,2.266,0,0,1-.905-.939,3.364,3.364,0,0,1,0-2.9" transform="translate(-199.98 -59.073)" fill="#fff" stroke="#fff" stroke-width="0.5"/>
        <path id="Path_15" data-name="Path 15" d="M298.956,61.475,296.519,59v2.475h-.2V54.233h.2v4.374l2.388-2.417h.284l-2.6,2.622,2.642,2.661Z" transform="translate(-216.349 -54.233)" fill="#fff" stroke="#fff" stroke-width="0.5"/>
      </g>
      <g id="Group_2" data-name="Group 2" transform="translate(0)">
        <path id="Path_16" data-name="Path 16" d="M0,.515H2.037L4.619,5.984,7.2.515H9.223L5.534,7.621v4.042H3.705V7.621Z" transform="translate(0 -0.37)" fill="#fff"/>
        <path id="Path_17" data-name="Path 17" d="M40,8.229a3.761,3.761,0,0,1,3.064,1.427V8.373H44.9v8.838H43.059V15.9a3.8,3.8,0,0,1-3.1,1.46c-2.293,0-4.138-1.877-4.138-4.6A4.206,4.206,0,0,1,40,8.229m.385,1.588A2.712,2.712,0,0,0,37.7,12.752a2.784,2.784,0,0,0,2.679,3.015,2.746,2.746,0,0,0,2.679-2.983A2.741,2.741,0,0,0,40.38,9.817" transform="translate(-25.767 -5.919)" fill="#fff"/>
        <path id="Path_18" data-name="Path 18" d="M75.093,4.6H74.05V3.112h1.043V.914h1.845v2.2h2.149V4.6H76.937V9.5c0,.658.256.93,1.027.93h1.122V11.95H77.643c-1.572,0-2.551-.658-2.551-2.454Z" transform="translate(-53.261 -0.657)" fill="#fff"/>
        <path id="Path_19" data-name="Path 19" d="M100.232,17.354a4.288,4.288,0,0,1-4.411-4.571,4.232,4.232,0,0,1,4.411-4.556,4.122,4.122,0,0,1,4.3,4.347,5.66,5.66,0,0,1-.064.9H97.714a2.431,2.431,0,0,0,2.518,2.342,2.139,2.139,0,0,0,2.085-1.236h1.973a4.038,4.038,0,0,1-4.058,2.775M97.73,12h4.892a2.3,2.3,0,0,0-2.47-2.229A2.407,2.407,0,0,0,97.73,12" transform="translate(-68.92 -5.917)" fill="#fff"/>
        <path id="Path_20" data-name="Path 20" d="M135.486,17.354a4.288,4.288,0,0,1-4.411-4.571,4.232,4.232,0,0,1,4.411-4.556,4.122,4.122,0,0,1,4.3,4.347,5.66,5.66,0,0,1-.064.9h-6.753a2.431,2.431,0,0,0,2.518,2.342,2.139,2.139,0,0,0,2.085-1.236h1.973a4.038,4.038,0,0,1-4.058,2.775M132.984,12h4.892a2.3,2.3,0,0,0-2.47-2.229A2.407,2.407,0,0,0,132.984,12" transform="translate(-94.277 -5.917)" fill="#fff"/>
        <path id="Path_21" data-name="Path 21" d="M181.028,12.271c0-1.62-.882-2.454-2.213-2.454a2.142,2.142,0,0,0-2.23,2.454v4.941h-1.812V12.271c0-1.62-.882-2.454-2.213-2.454a2.142,2.142,0,0,0-2.23,2.454v4.941H168.5V8.373h1.829V9.384a3.365,3.365,0,0,1,2.614-1.155,3.409,3.409,0,0,1,3.176,1.748A3.624,3.624,0,0,1,182.84,12v5.214h-1.812Z" transform="translate(-121.195 -5.919)" fill="#fff"/>
        <path id="Path_22" data-name="Path 22" d="M232.9,9.344h-4.668l-.8,2.278h-1.909L229.519.457h2.117l3.994,11.164h-1.925Zm-2.326-6.673-1.828,5.181h3.641Z" transform="translate(-162.211 -0.329)" fill="#fff"/>
        <path id="Path_23" data-name="Path 23" d="M271.215,0A5.314,5.314,0,0,1,276.4,3.352h-2.2A3.115,3.115,0,0,0,271.215,1.6a3.749,3.749,0,0,0-3.818,4.09A3.762,3.762,0,0,0,271.215,9.8,3.115,3.115,0,0,0,274.2,8.053h2.2a5.3,5.3,0,0,1-5.181,3.336,5.566,5.566,0,0,1-5.694-5.694A5.576,5.576,0,0,1,271.215,0" transform="translate(-190.978)" fill="#fff"/>
      </g>
    </g>
  </g>
</svg>
