<svg xmlns="http://www.w3.org/2000/svg" xmlns:xlink="http://www.w3.org/1999/xlink" width="30.469" height="43.847" viewBox="0 0 30.469 43.847">
  <defs>
    <linearGradient id="linear-gradient" x1="1" x2="-0.363" y2="2.194" gradientUnits="objectBoundingBox">
      <stop offset="0" stop-color="#038e8b"/>
      <stop offset="0.267" stop-color="#068c8b"/>
      <stop offset="0.507" stop-color="#11888e"/>
      <stop offset="0.737" stop-color="#238192"/>
      <stop offset="0.937" stop-color="#3d7797"/>
      <stop offset="1" stop-color="#437599"/>
    </linearGradient>
  </defs>
  <g id="Group_3150" data-name="Group 3150" transform="translate(-10 -4)">
    <path id="Path_1228" data-name="Path 1228" d="M35.171,21.493A2.728,2.728,0,0,0,32.3,20.036L17.835,22.409a3.819,3.819,0,0,0-2.787,2.039L10.3,33.805a2.728,2.728,0,0,0,.224,2.837l6.253,8.619a2.728,2.728,0,0,0,4.416-3.2l-1.843-2.54a2.179,2.179,0,0,1,1.172-1.51l3.526-1.736-3.526-1.736A2.182,2.182,0,0,1,19.3,32.578V28.268a2.182,2.182,0,1,1,4.365,0v2.951l6.285,3.094a2.183,2.183,0,0,1,.674,3.4l.023-.006-1.367,1.885A2.728,2.728,0,1,0,33.7,42.8l6.253-8.618a2.728,2.728,0,0,0,.224-2.837Zm1.019,7.783a3.819,3.819,0,1,1-3.819-3.819A3.819,3.819,0,0,1,36.19,29.275Z" transform="translate(0 1.46)" fill-rule="evenodd" fill="url(#linear-gradient)"/>
    <path id="Path_1229" data-name="Path 1229" d="M32.277,11.639A7.639,7.639,0,1,1,24.639,4,7.639,7.639,0,0,1,32.277,11.639Z" transform="translate(0.639 0)" fill="url(#linear-gradient)"/>
  </g>
</svg>
