<svg xmlns="http://www.w3.org/2000/svg" xmlns:xlink="http://www.w3.org/1999/xlink" width="48.58" height="37.784" viewBox="0 0 48.58 37.784">
  <defs>
    <linearGradient id="linear-gradient" x1="1" x2="-0.363" y2="2.194" gradientUnits="objectBoundingBox">
      <stop offset="0" stop-color="#038e8b"/>
      <stop offset="0.267" stop-color="#068c8b"/>
      <stop offset="0.507" stop-color="#11888e"/>
      <stop offset="0.737" stop-color="#238192"/>
      <stop offset="0.937" stop-color="#3d7797"/>
      <stop offset="1" stop-color="#437599"/>
    </linearGradient>
  </defs>
  <g id="Group_3148" data-name="Group 3148" transform="translate(-6 -10)">
    <path id="Path_1224" data-name="Path 1224" d="M20.41,15.038A5.038,5.038,0,1,1,15.372,10,5.038,5.038,0,0,1,20.41,15.038Z" transform="translate(1.514)" fill="url(#linear-gradient)"/>
    <path id="Path_1225" data-name="Path 1225" d="M10.988,28.369A2.7,2.7,0,1,1,6.41,25.508l0-.008.01-.015.033-.051.116-.18c.1-.152.239-.365.412-.62.344-.505.829-1.191,1.379-1.888a16.749,16.749,0,0,1,1.9-2.073,7.191,7.191,0,0,1,1.246-.91,4.118,4.118,0,0,1,2.006-.561h6.742a4.118,4.118,0,0,1,2.006.561,7.189,7.189,0,0,1,1.246.91,16.746,16.746,0,0,1,1.9,2.073c.551.7,1.035,1.382,1.379,1.888.173.255.314.468.412.62l.116.18.033.051.01.015,0,.007s-.046-.073,0,0a2.7,2.7,0,0,1-4.577,2.861l0-.006-.021-.033-.09-.14-.116-.177v3.352l.976,10.249a2.7,2.7,0,0,1-5.358.637L16.8,32.616l-1.377,9.636a2.7,2.7,0,0,1-5.358-.637l1.132-11.889h.025V28.012l-.117.178-.09.14-.021.033Z" transform="translate(0 3.215)" fill-rule="evenodd" fill="url(#linear-gradient)"/>
    <path id="Path_1226" data-name="Path 1226" d="M40.409,15.038A5.038,5.038,0,1,1,35.371,10,5.038,5.038,0,0,1,40.409,15.038Z" transform="translate(8.503)" fill="url(#linear-gradient)"/>
    <path id="Path_1227" data-name="Path 1227" d="M30.995,28.156A2.7,2.7,0,0,1,26.4,25.318l0-.008.009-.015.032-.051.114-.18c.1-.152.236-.365.408-.62.34-.505.819-1.191,1.364-1.888a16.682,16.682,0,0,1,1.879-2.074,7.135,7.135,0,0,1,1.238-.914A4.091,4.091,0,0,1,33.462,19h6.668a4.091,4.091,0,0,1,2.009.568,7.136,7.136,0,0,1,1.238.914,16.7,16.7,0,0,1,1.879,2.074c.544.7,1.024,1.382,1.364,1.888.171.255.31.468.408.62l.115.18.032.051.014.023A2.7,2.7,0,0,1,42.6,28.157l0-.007-.021-.033-.089-.14c-.079-.124-.2-.3-.343-.522-.061-.09-.126-.186-.2-.287.631,3.145,1.875,7.456,2.526,9.638a1.338,1.338,0,0,1-1,1.7,30.1,30.1,0,0,1-13.3-.018,1.348,1.348,0,0,1-1.025-1.728A98.192,98.192,0,0,0,31.7,27.089c-.09.13-.174.253-.251.367-.146.218-.264.4-.343.522l-.089.14L31,28.15ZM30.858,40.8v1.82a2.024,2.024,0,0,0,3.978.527l.533-1.976C33.91,41.117,32.427,40.994,30.858,40.8Zm7.631.364.535,1.983A2.024,2.024,0,0,0,43,42.615V40.776C41.434,40.976,39.95,41.1,38.489,41.159Z" transform="translate(6.988 3.145)" fill-rule="evenodd" fill="url(#linear-gradient)"/>
  </g>
</svg>
