<svg xmlns="http://www.w3.org/2000/svg" width="21" height="21" viewBox="0 0 21 21">
  <g id="Layer_2" data-name="Layer 2" transform="translate(0.5 0.5)">
    <path id="Path_1127" data-name="Path 1127" d="M16.875,0H3.125A3.129,3.129,0,0,0,0,3.125v13.75A3.129,3.129,0,0,0,3.125,20h13.75A3.129,3.129,0,0,0,20,16.875V3.125A3.129,3.129,0,0,0,16.875,0ZM12.5,1.25V6.824L10.391,5.137a.643.643,0,0,0-.781,0L7.5,6.824V1.25Zm6.25,15.625a1.875,1.875,0,0,1-1.875,1.875H3.125A1.875,1.875,0,0,1,1.25,16.875V3.125A1.875,1.875,0,0,1,3.125,1.25H6.25V8.125a.625.625,0,0,0,1.016.488L10,6.426l2.734,2.188a.636.636,0,0,0,.662.075.625.625,0,0,0,.354-.563V1.25h3.125A1.875,1.875,0,0,1,18.75,3.125Z" fill="#fff" stroke="#fff" stroke-width="1"/>
    <path id="Path_1128" data-name="Path 1128" d="M9.375,21H5.625a.625.625,0,0,0,0,1.25h3.75a.625.625,0,0,0,0-1.25Zm-2.5,2.5H5.625a.625.625,0,0,0,0,1.25h1.25a.625.625,0,0,0,0-1.25Z" transform="translate(-1.875 -7.875)" fill="#fff" stroke="#fff" stroke-width="1"/>
    <circle id="Ellipse_18" data-name="Ellipse 18" cx="0.574" cy="0.574" r="0.574" transform="translate(6.889 16.075)" fill="#fff" stroke="#fff" stroke-width="1"/>
  </g>
</svg>
