<svg id="Group_3051" data-name="Group 3051" xmlns="http://www.w3.org/2000/svg" xmlns:xlink="http://www.w3.org/1999/xlink" width="44.529" height="41.582" viewBox="0 0 44.529 41.582">
  <defs>
    <clipPath id="clip-path">
      <rect id="Rectangle_2100" data-name="Rectangle 2100" width="44.529" height="41.582" fill="#fff"/>
    </clipPath>
  </defs>
  <g id="Group_3050" data-name="Group 3050" clip-path="url(#clip-path)">
    <path id="Path_1122" data-name="Path 1122" d="M0,144.928c.065-.278.126-.557.2-.834a6.871,6.871,0,0,1,6.733-5.253c2.784-.015,5.568.014,8.351-.01a4.256,4.256,0,0,0,.089-8.509c-1.391-.03-2.784-.008-4.175-.009H10.74v-2.578a2.174,2.174,0,0,1,.278-.03c1.421,0,2.842-.019,4.262,0a6.862,6.862,0,0,1,.258,13.717c-2.84.077-5.683.012-8.525.027a4.248,4.248,0,0,0-1.534,8.256,5.873,5.873,0,0,0,1.66.255q10.308.025,20.617.011h.479v2.61h-.429q-10.352,0-20.7,0a6.853,6.853,0,0,1-7.03-5.939.61.61,0,0,0-.073-.15v-1.566" transform="translate(0 -113.782)" fill="#fff"/>
    <path id="Path_1123" data-name="Path 1123" d="M0,14.7a4.186,4.186,0,0,1,1.009-2.126,8.111,8.111,0,0,1,1.413-1.054.58.58,0,0,0,.369-.578c-.012-3.117-.008-6.233-.007-9.35C2.784.483,3.261,0,4.364,0q3.914,0,7.828,0a1.351,1.351,0,0,1,1.553,1.535q0,2.544,0,5.088c0,1.072-.491,1.554-1.577,1.554H5.395c0,1.02-.007,2,.011,2.983a.444.444,0,0,0,.239.292,4.056,4.056,0,0,1,2.268,5.184,4.108,4.108,0,0,1-6.249,1.87A4.523,4.523,0,0,1,0,15.66Z" transform="translate(0 0)" fill="#fff"/>
    <path id="Path_1124" data-name="Path 1124" d="M241.224,25.568a9.656,9.656,0,0,1,9.486,11.273,9.519,9.519,0,0,1-2.9,5.414,3.288,3.288,0,0,0-.641.857c-1.563,3.037-3.107,6.083-4.663,9.124a2.467,2.467,0,0,1-.4.613,1.291,1.291,0,0,1-2.1-.413c-.457-.855-.884-1.726-1.324-2.59q-1.744-3.424-3.494-6.845a2.474,2.474,0,0,0-.485-.653,9.654,9.654,0,0,1,6.522-16.781m4.068,9.644a4.085,4.085,0,1,0-4.1,4.1,4.127,4.127,0,0,0,4.1-4.1" transform="translate(-206.32 -22.782)" fill="#fff"/>
    <path id="Path_1125" data-name="Path 1125" d="M286.785,314.805a4.086,4.086,0,1,1,4.065-4.084,4.128,4.128,0,0,1-4.065,4.084" transform="translate(-251.88 -273.224)" fill="#fff"/>
  </g>
</svg>
